<svg width="600" height="488" viewBox="0 0 600 488" fill="none" xmlns="http://www.w3.org/2000/svg">
<path d="M414.167 477.742V452.221C414.167 450.333 413.967 449.012 413.568 448.256C413.19 447.501 412.403 446.903 411.206 446.463C410.01 446.022 408.571 445.802 406.892 445.802V444.354H422.386V445.802C420.581 445.949 419.153 446.295 418.103 446.84C417.074 447.386 416.413 448.047 416.119 448.823C415.846 449.578 415.71 450.868 415.71 452.693V488H414.356L384.154 448.005V477.616C384.154 480.07 384.27 481.686 384.5 482.462C384.752 483.238 385.445 483.951 386.579 484.602C387.713 485.252 389.413 485.577 391.681 485.577V487.025H375.745V485.577C377.782 485.43 379.336 485.063 380.406 484.476C381.477 483.867 382.107 483.217 382.296 482.525C382.506 481.832 382.611 480.196 382.611 477.616V454.991C382.611 451.718 382.453 449.526 382.139 448.414C381.845 447.302 381.362 446.589 380.69 446.274C380.039 445.959 378.569 445.802 376.281 445.802V444.354H388.878L414.167 477.742Z" fill="black"></path>
<path d="M137.005 443.568C140.196 443.568 143.083 444.229 145.666 445.55C148.269 446.851 150.211 448.298 151.492 449.893C152.395 448.11 152.941 446.264 153.129 444.354H154.515L154.893 460.529H153.539C152.594 454.781 150.663 450.784 147.744 448.54C144.847 446.295 141.572 445.173 137.918 445.173C133.447 445.173 129.888 446.987 127.242 450.617C124.618 454.246 123.306 459.438 123.306 466.193C123.306 472.591 124.744 477.5 127.62 480.92C130.497 484.318 134.076 486.018 138.359 486.018C140.648 486.018 142.989 485.462 145.382 484.35C147.776 483.238 149.665 481.36 151.051 478.717C152.458 476.053 153.287 473.483 153.539 471.008H154.893V485.955H153.539C153.161 484.255 152.479 482.755 151.492 481.455C147.734 485.692 142.936 487.811 137.1 487.811C130.927 487.811 125.878 485.86 121.952 481.958C118.047 478.056 116.094 472.896 116.094 466.476C116.094 462.26 116.997 458.295 118.802 454.581C120.608 450.847 123.127 448.078 126.361 446.274C129.594 444.47 133.142 443.568 137.005 443.568Z" fill="black"></path>
<path d="M462.054 443.568C467.764 443.568 472.488 445.666 476.225 449.861C476.918 448.393 477.359 446.809 477.548 445.11H479.06V459.365H477.548C476.939 454.98 475.27 451.508 472.541 448.949C469.832 446.389 466.536 445.11 462.652 445.11C458.642 445.11 455.146 446.599 452.165 449.578C449.184 452.557 447.693 457.844 447.693 465.438C447.693 473.011 449.131 478.381 452.007 481.549C454.884 484.696 458.453 486.269 462.715 486.269C464.898 486.269 466.883 485.829 468.667 484.948C470.452 484.046 471.669 482.955 472.32 481.675C472.971 480.395 473.297 478.78 473.297 476.829C473.297 474.543 473.139 473.022 472.824 472.266C472.53 471.49 472.068 470.976 471.438 470.724C470.809 470.452 469.654 470.315 467.974 470.315H466.966V468.805H485.39V470.315C483.354 470.315 481.968 470.525 481.233 470.945C480.519 471.343 480.047 472.025 479.816 472.99C479.585 473.934 479.469 476.242 479.469 479.913V484.444C478.965 484.36 478.514 484.318 478.115 484.318C476.498 484.318 474.378 484.811 471.753 485.797C468.184 487.14 464.877 487.811 461.833 487.811C455.724 487.811 450.643 485.808 446.591 481.801C442.539 477.773 440.513 472.675 440.513 466.508C440.513 460.403 442.444 455.053 446.307 450.459C450.17 445.865 455.419 443.568 462.054 443.568Z" fill="black"></path>
<path fill-rule="evenodd" clip-rule="evenodd" d="M210.338 477.647L212.291 482.116C212.732 483.122 213.32 483.92 214.054 484.507C214.81 485.073 215.934 485.43 217.424 485.577V487.025H200.639V485.577C202.696 485.577 204.082 485.43 204.796 485.136C205.53 484.822 205.898 484.213 205.898 483.311C205.898 482.85 205.415 481.476 204.449 479.189L201.174 471.291H184.955L183.853 473.997C182.215 477.92 181.396 480.479 181.396 481.675C181.396 482.955 181.827 483.93 182.688 484.602C183.569 485.252 184.693 485.577 186.057 485.577V487.025H173.366V485.577C175.255 485.283 176.662 484.622 177.586 483.595C178.51 482.546 179.622 480.353 180.924 477.018C181.029 476.703 181.533 475.486 182.436 473.368L194.844 443.757H196.072L210.338 477.647ZM185.554 469.875H200.639L193.08 451.686L185.554 469.875Z" fill="black"></path>
<path d="M253.563 445.802H251.674C249.575 445.802 248.199 445.98 247.548 446.337C246.898 446.673 246.457 447.313 246.226 448.256C246.016 449.201 245.911 451.445 245.911 454.991V477.332C245.911 480.416 245.995 482.346 246.163 483.123C246.331 483.899 246.782 484.507 247.517 484.948C248.273 485.367 249.879 485.577 252.335 485.577H255.579C258.203 485.577 260.145 485.346 261.405 484.885C262.686 484.423 263.893 483.416 265.027 481.864C266.182 480.311 267.231 477.846 268.176 474.469H269.656L269.341 487.025H233.062V485.577H234.321C236.148 485.577 237.408 485.346 238.101 484.885C238.814 484.423 239.266 483.71 239.455 482.745C239.665 481.759 239.77 479.483 239.77 475.916V454.991C239.77 451.592 239.665 449.4 239.455 448.414C239.266 447.428 238.846 446.746 238.195 446.368C237.565 445.991 236.169 445.802 234.006 445.802H233.062V444.354H253.563V445.802Z" fill="black"></path>
<path d="M306.741 445.802H304.852C302.752 445.802 301.377 445.98 300.726 446.337C300.075 446.673 299.634 447.312 299.403 448.256C299.193 449.201 299.089 451.445 299.089 454.991V477.332C299.089 480.416 299.172 482.346 299.34 483.123C299.508 483.899 299.96 484.507 300.695 484.948C301.451 485.367 303.057 485.577 305.513 485.577H308.757C311.381 485.577 313.323 485.346 314.583 484.885C315.864 484.423 317.071 483.416 318.205 481.864C319.359 480.311 320.409 477.846 321.354 474.469H322.834L322.519 487.025H286.239V485.577H287.499C289.326 485.577 290.586 485.346 291.278 484.885C291.992 484.423 292.444 483.71 292.633 482.745C292.842 481.759 292.947 479.483 292.947 475.916V454.991C292.947 451.592 292.842 449.4 292.633 448.414C292.444 447.428 292.024 446.746 291.373 446.368C290.743 445.991 289.347 445.802 287.184 445.802H286.239V444.354H306.741V445.802Z" fill="black"></path>
<path d="M358.785 445.802H357.872C355.773 445.802 354.397 445.98 353.746 446.337C353.096 446.673 352.655 447.312 352.424 448.256C352.214 449.201 352.109 451.445 352.109 454.991V475.916C352.109 479.273 352.182 481.476 352.329 482.525C352.497 483.553 352.917 484.318 353.589 484.822C354.282 485.325 355.594 485.577 357.526 485.577H358.785V487.025H339.26V485.577H340.519C342.346 485.577 343.606 485.346 344.299 484.885C345.012 484.423 345.464 483.71 345.653 482.745C345.842 481.759 345.936 479.483 345.936 475.916V454.991C345.936 451.592 345.842 449.4 345.653 448.414C345.464 447.428 345.044 446.746 344.393 446.368C343.742 445.991 342.335 445.802 340.173 445.802H339.26V444.354H358.785V445.802Z" fill="black"></path>
<path d="M58.0475 460.326C61.6095 460.326 64.4972 463.211 64.4972 466.77C64.4972 470.329 61.6095 473.215 58.0475 473.215C54.4854 473.215 51.5977 470.329 51.5977 466.77C51.5977 463.211 54.4854 460.326 58.0475 460.326Z" fill="black"></path>
<path d="M541.776 460.326C545.338 460.326 548.226 463.211 548.226 466.77C548.226 470.329 545.338 473.215 541.776 473.215C538.214 473.215 535.326 470.329 535.326 466.77C535.326 463.211 538.214 460.326 541.776 460.326Z" fill="black"></path>
<path fill-rule="evenodd" clip-rule="evenodd" d="M294.773 369.774C297.062 369.774 299.109 370.413 300.914 371.693C302.741 372.994 303.654 374.672 303.654 376.728C303.654 379.959 300.631 383.095 294.584 386.137C296.474 388.675 298.29 391.161 300.032 393.595C301.796 396.028 303.507 398.43 305.166 400.801C306.362 399.143 307.307 397.413 308 395.609C308.693 393.825 309.039 392.42 309.039 391.392C309.039 388.979 307.402 387.584 304.126 387.207V385.759H317.605V387.207C315.926 387.668 314.435 388.486 313.133 389.661C311.895 390.794 310.593 393.007 309.228 396.301C308.095 399.007 307.055 400.979 306.111 402.217C308.357 405.447 310.121 407.482 311.401 408.321C312.703 409.182 314.068 409.612 315.495 409.612C317.469 409.612 318.991 408.678 320.062 406.811H321.51C321.07 408.531 320.125 409.926 318.676 410.996C317.248 412.045 315.59 412.57 313.7 412.57C309.606 412.57 306.006 410.514 302.898 406.402C299.224 410.514 295.319 412.57 291.183 412.57C289.692 412.591 288.223 412.318 286.774 411.751C285.325 411.185 284.034 410.388 282.9 409.36C281.767 408.311 280.853 407.073 280.16 405.647C279.468 404.199 279.142 402.615 279.184 400.895C279.184 398.273 279.898 396.06 281.326 394.255C282.753 392.472 285.514 390.207 289.608 387.458C287.152 384.039 285.924 380.945 285.924 378.175C285.924 376.015 286.763 374.074 288.443 372.354C290.102 370.634 292.212 369.774 294.773 369.774ZM290.553 388.749C288.37 390.112 286.679 391.686 285.483 393.469C284.286 395.273 283.688 397.004 283.688 398.661C283.688 401.262 284.727 403.706 286.805 405.993C288.884 408.279 291.235 409.423 293.86 409.423C296.757 409.423 299.455 407.986 301.953 405.112C299.728 401.734 297.67 398.692 295.781 395.986C293.891 393.259 292.149 390.846 290.553 388.749ZM294.899 371.284C293.366 371.284 292.149 371.788 291.246 372.795C290.343 373.781 289.892 375.029 289.892 376.539C289.892 378.595 291.162 381.396 293.702 384.941C297.901 382.487 300.001 379.833 300.001 376.98C300.001 376.141 299.875 375.375 299.623 374.683C299.392 373.969 299.046 373.361 298.584 372.857C298.143 372.354 297.607 371.966 296.978 371.693C296.348 371.42 295.655 371.284 294.899 371.284Z" fill="black"></path>
<path d="M232.19 394.959H0V390.356H232.19V394.959Z" fill="black"></path>
<path d="M599.824 394.959H367.634V390.356H599.824V394.959Z" fill="black"></path>
<path fill-rule="evenodd" clip-rule="evenodd" d="M269.01 243.973C283.747 243.973 296.043 248.339 305.899 257.072C315.801 265.805 320.753 277.721 320.753 292.817C320.753 307.45 316.011 319.295 306.527 328.353C297.09 337.411 284.653 341.94 269.219 341.94C254.203 341.94 241.883 337.411 232.26 328.353C222.637 319.295 217.826 307.287 217.826 292.329C217.826 277.743 222.707 266.037 232.47 257.211C242.232 248.386 254.413 243.973 269.01 243.973ZM269.08 247.456C257.69 247.457 248.95 251.289 242.86 258.954C236.816 266.572 233.794 277.86 233.794 292.817C233.794 308.007 236.816 319.411 242.86 327.029C248.95 334.647 258.062 338.456 270.195 338.456C280.841 338.456 289.256 334.647 295.439 327.029C301.622 319.411 304.714 308.054 304.714 292.957C304.714 278.278 301.668 267.036 295.578 259.233C289.488 251.382 280.655 247.456 269.08 247.456Z" fill="black"></path>
<path fill-rule="evenodd" clip-rule="evenodd" d="M146.081 245.814C155.1 245.814 162.422 246.65 168.047 248.322C173.719 249.995 178.298 252.735 181.785 256.544C185.272 260.353 187.015 264.906 187.015 270.201C187.015 276.379 184.737 281.652 180.181 286.019C175.625 290.385 168.93 293.102 160.097 294.171C164.049 296.075 170.418 302.95 179.205 314.795C186.364 324.411 191.989 330.706 196.08 333.679C200.171 336.651 205.006 338.231 210.585 338.417V341.622H185.132C180.623 338.463 173.719 330.195 164.421 316.816C161.446 312.543 158.355 308.455 155.147 304.553C151.939 300.605 149.73 298.212 148.522 297.376C147.313 296.493 145.43 296.052 142.874 296.052H139.108V317.025C139.108 324.457 139.27 329.335 139.596 331.657C139.968 333.934 140.897 335.63 142.385 336.744C143.919 337.859 146.825 338.417 151.102 338.417H155.635V341.622H110.378V338.417H113.446C117.49 338.417 120.28 337.906 121.814 336.884C123.394 335.862 124.394 334.282 124.812 332.146C125.23 329.962 125.44 324.922 125.44 317.025V270.689C125.44 263.164 125.23 258.31 124.812 256.126C124.394 253.943 123.464 252.434 122.023 251.598C120.582 250.762 117.467 250.343 112.678 250.343H111.075V247.138L124.603 246.441C133.622 246.023 140.782 245.814 146.081 245.814ZM145.035 249.368C143.315 249.368 141.339 249.461 139.108 249.647V292.847C142.595 292.754 146.197 292.615 149.916 292.429C153.635 292.243 156.867 291.732 159.61 290.896C162.352 290.06 164.561 288.852 166.234 287.273C167.954 285.647 169.302 283.533 170.279 280.932C171.255 278.33 171.743 275.125 171.743 271.316C171.743 264.674 170.07 259.355 166.723 255.36C163.422 251.365 156.192 249.368 145.035 249.368Z" fill="black"></path>
<path d="M371.274 249.875C367.067 250.148 364.368 250.762 363.179 251.718C361.99 252.628 361.396 253.926 361.396 255.609C361.396 257.111 362.356 260.957 364.277 267.147L380.879 321.081L405.165 246.735H409.006L436.311 321.081L450.512 271.927C452.387 265.282 453.325 260.935 453.325 258.886C453.325 252.879 450.1 249.875 443.652 249.875V246.735H469.035V249.875C465.285 250.148 462.495 251.536 460.665 254.04C458.836 256.497 456.527 262.437 453.737 271.858L433.293 341.562H430.205L401.872 265.236L377.106 341.562H373.813L351.379 269.469C349.367 262.915 347.904 258.568 346.989 256.429C346.12 254.245 344.953 252.651 343.49 251.65C342.072 250.603 339.694 250.012 336.355 249.875V246.735H371.274V249.875Z" fill="black"></path>
<path d="M46.3034 243.495C53.3697 243.495 59.7625 244.958 65.4806 247.884C71.2451 250.764 75.5452 253.97 78.381 257.5C80.38 253.552 81.5887 249.464 82.0071 245.237H85.0754L85.9122 281.051H82.9141C80.8222 268.324 76.5448 259.475 70.0831 254.504C63.6677 249.534 56.415 247.048 48.3261 247.048C38.4239 247.048 30.5435 251.067 24.6858 259.103C18.8748 267.139 15.9695 278.636 15.9695 293.593C15.9695 307.761 19.1536 318.631 25.5226 326.203C31.8917 333.728 39.8185 337.491 49.3024 337.491C54.3695 337.491 59.553 336.26 64.8526 333.798C70.1524 331.336 74.3364 327.178 77.4047 321.325C80.5194 315.426 82.3562 309.736 82.9141 304.255H85.9122V337.351H82.9141C82.0774 333.589 80.5659 330.268 78.381 327.388C70.0595 336.771 59.4367 341.463 46.513 341.463C32.8453 341.463 21.664 337.143 12.9705 328.503C4.3236 319.863 9.11607e-05 308.435 0 294.221C0 284.884 1.99916 276.104 5.99712 267.883C9.99517 259.614 15.574 253.482 22.7333 249.488C29.8926 245.493 37.7493 243.495 46.3034 243.495Z" fill="black"></path>
<path d="M581.799 320.664V264.154C581.799 259.974 581.358 257.047 580.474 255.375C579.638 253.702 577.894 252.379 575.244 251.403C572.594 250.428 569.41 249.94 565.691 249.94V246.735H600V249.94C596.002 250.265 592.841 251.032 590.516 252.24C588.238 253.447 586.773 254.91 586.122 256.629C585.518 258.301 585.216 261.158 585.216 265.2V341.101H580.845L515.343 254.817V320.385C515.343 325.819 515.598 329.397 516.11 331.115C516.668 332.834 518.202 334.413 520.712 335.853C523.222 337.293 526.988 338.013 532.009 338.013V341.218H496.724V338.013C501.233 337.688 504.673 336.875 507.044 335.575C509.415 334.228 510.81 332.787 511.228 331.255C511.693 329.722 511.926 326.098 511.926 320.385V270.286C511.926 263.04 511.577 258.186 510.88 255.723C510.229 253.262 509.16 251.682 507.672 250.985C506.231 250.289 502.977 249.94 497.909 249.94V246.735H525.803L581.799 320.664Z" fill="black"></path>
<path fill-rule="evenodd" clip-rule="evenodd" d="M300.938 2.65406C301.304 9.30055 301.988 21.6356 302.68 33.9301L314.231 33.6209L317.314 34.5055H325.683L328.326 38.929L303.055 40.5662C303.35 45.7806 303.636 50.7948 303.889 55.1492C305.07 75.4983 306.841 88.4745 329.567 97.322C347.748 104.4 362.526 88.868 367.642 80.2171L377.738 53.4346L362.859 51.0206L361.973 49.2512L363.449 46.0065L372.008 47.187L374.074 46.5477L379.965 47.5286L392.435 14.4508C393.32 12.2577 395.327 8.00858 396.272 8.55289C397.215 9.09834 396.862 11.7289 396.567 12.9763L389.053 49.0418L397.391 50.4308L397.686 51.3155H398.867L397.391 56.6236L387.798 55.0665L382.99 78.1529C378.858 96.7324 387.122 112.068 404.831 102.336C418.999 94.5497 447.333 50.332 459.729 29.1965C460.797 27.8202 462.998 25.1863 463.271 25.6578C463.543 26.1303 462.598 28.8033 462.091 30.0812C426.673 99.9742 439.658 114.722 442.315 116.197C444.442 117.374 469.764 80.7083 482.16 62.2276C482.751 61.5394 483.99 60.2815 484.226 60.7531C484.462 61.2251 483.931 62.3259 483.636 62.8174L450.284 128.584C449.339 133.539 441.076 153.061 436.944 162.204L436.941 162.201V162.204L431.274 167.217C411.204 182.316 335.351 187.468 299.933 188.156C264.514 187.468 188.66 182.317 168.59 167.217L163.041 162.204V162.199C158.908 153.055 150.765 133.538 149.82 128.584L116.467 62.8174C116.172 62.326 115.642 61.2252 115.877 60.7531C116.113 60.2816 117.353 61.5395 117.943 62.2276C130.339 80.7079 155.661 117.372 157.789 116.197C160.446 114.722 173.431 99.9738 138.014 30.0812C137.507 28.8032 136.561 26.1298 136.833 25.6578C137.107 25.1871 139.308 27.8204 140.375 29.1965C152.771 50.3321 181.106 94.5502 195.273 102.336C212.982 112.068 221.247 96.7322 217.115 78.1529L212.536 56.1741L209.38 56.9185L208.79 56.0339L199.64 56.9185V52.79L207.314 50.1359L211.192 49.7233L203.538 12.9763C203.243 11.7288 202.889 9.09793 203.833 8.55289C204.777 8.00952 206.784 12.258 207.67 14.4508L220.59 48.7244L235.058 47.187L235.649 50.7257L222.512 53.8221L232.462 80.2171C237.579 88.868 252.356 104.4 270.537 97.322C293.263 88.4745 295.034 75.4981 296.215 55.1492C296.461 50.9035 296.739 46.0306 297.026 40.9564L273.709 42.4677L271.066 41.583L273.268 33.6209L281.196 34.5055L297.414 34.0704C298.109 21.7295 298.799 9.32584 299.167 2.65406L300.052 0L300.938 2.65406ZM300.052 136.251C271.148 136.813 215.313 140.347 184.844 149.835C215.339 159.295 271.066 162.822 299.933 163.383C328.837 162.822 384.67 159.286 415.138 149.798C384.644 140.339 328.919 136.812 300.052 136.251Z" fill="black"></path>
</svg>